<svg width="100" height="100" viewBox="0 0 100 100" fill="none" xmlns="http://www.w3.org/2000/svg">
<path d="M58.0516 50.7884L53.5703 53.3817V100L93.923 76.7012V30.083L58.0516 50.7884Z" fill="#16962B"/>
<path d="M65.3511 8.9834L49.8324 0L8.35938 23.9419L23.8988 32.9253L65.3511 8.9834Z" fill="#16962B"/>
<path d="M91.2892 23.9419L73.4054 13.7552L31.9531 37.6971L34.3183 38.9212L49.8369 47.8838L65.2726 38.9834L91.2892 23.9419Z" fill="#16962B"/>
<path d="M28.8167 54.834L21.3893 51.0166V39.1494L6.07812 30.3319V76.6183L46.1404 99.751V53.4647L28.8167 43.4855V54.834Z" fill="#16962B"/>
<circle cx="73.5" cy="37.5" r="23.5" fill="white"/>
<g clip-path="url(#clip0_1506_1024)">
<path d="M73.5 18.75C63.1312 18.75 54.75 27.1312 54.75 37.5C54.75 47.8687 63.1312 56.25 73.5 56.25C83.8687 56.25 92.25 47.8687 92.25 37.5C92.25 27.1312 83.8687 18.75 73.5 18.75ZM82.875 44.2313L80.2313 46.875L73.5 40.1437L66.7687 46.875L64.125 44.2313L70.8563 37.5L64.125 30.7687L66.7687 28.125L73.5 34.8563L80.2313 28.125L82.875 30.7687L76.1437 37.5L82.875 44.2313Z" fill="#16962B"/>
</g>
<defs>
<clipPath id="clip0_1506_1024">
<rect width="45" height="45" fill="white" transform="translate(51 15)"/>
</clipPath>
</defs>
</svg>
