<svg width="86" height="71" viewBox="0 0 86 71" fill="none" xmlns="http://www.w3.org/2000/svg">
<g clip-path="url(#clip0_1506_945)">
<path d="M86 46.7931V10.0475C86 8.40381 84.5799 7.07157 82.8279 7.07157H16.3298L14.3958 2.08219C13.9401 0.906023 12.7484 0.123013 11.4147 0.123013H3.17213C1.42006 0.123013 0 1.45525 0 3.09898C0 4.74271 1.42006 6.07495 3.17213 6.07495H9.19319L29.3602 58.1074C29.8159 59.2839 31.0076 60.0666 32.3413 60.0666H34.7489C34.0951 61.1267 33.7187 62.3555 33.7187 63.6659C33.7187 67.6418 37.1668 70.877 41.4051 70.877C45.6434 70.877 49.0919 67.6421 49.0919 63.6659C49.0919 62.3555 48.7155 61.1267 48.0617 60.0666H71.6574C71.0036 61.1267 70.6272 62.3555 70.6272 63.6659C70.6272 67.6418 74.0753 70.877 78.3136 70.877C82.5519 70.877 86.0004 67.6421 86.0004 63.6659C86.0004 62.1356 85.4879 60.7157 84.618 59.5471C85.4526 59.0111 86.0004 58.1114 86.0004 57.0907C86.0004 55.4469 84.5803 54.1147 82.8282 54.1147H34.5632L32.8788 49.7691H82.8279C84.5799 49.7691 86 48.4369 86 46.7931ZM41.4051 64.9247C40.665 64.9247 40.063 64.36 40.063 63.6656C40.063 62.9712 40.665 62.4061 41.4051 62.4061C42.1453 62.4061 42.7476 62.9712 42.7476 63.6656C42.7476 64.36 42.1449 64.9247 41.4051 64.9247ZM78.3132 64.9247C77.5731 64.9247 76.9711 64.36 76.9711 63.6656C76.9711 62.9712 77.5731 62.4061 78.3132 62.4061C79.0534 62.4061 79.6557 62.9715 79.6557 63.6659C79.6557 64.3603 79.0534 64.9247 78.3132 64.9247ZM44.5773 31.4639V25.3767H59.918V31.4639H44.5773ZM59.918 37.4159V43.8172H44.5773V37.4159H59.918ZM25.7863 31.4695L23.4248 25.3767H38.233V31.4639H25.9057C25.8652 31.4639 25.8261 31.4682 25.7863 31.4695ZM44.5773 19.4248V13.0235H59.918V19.4245H44.5773V19.4248ZM66.2623 25.3767H79.6557V31.4639H66.2623V25.3767ZM79.6557 19.4248H66.2623V13.0235H79.6557V19.4248ZM38.233 13.0235V19.4245H21.1179L18.637 13.0235H38.233ZM28.0906 37.4159H38.2326V43.8172H30.5719L28.0906 37.4159ZM66.2623 43.8172V37.4159H79.6557V43.8172H66.2623Z" fill="#16962B"/>
</g>
<defs>
<clipPath id="clip0_1506_945">
<rect width="86" height="71" fill="white"/>
</clipPath>
</defs>
</svg>
