<svg width="16" height="16" viewBox="0 0 16 16" fill="none" xmlns="http://www.w3.org/2000/svg">
<path d="M8 1.6C6.30261 1.6 4.67475 2.27428 3.47452 3.47452C2.27428 4.67475 1.6 6.30261 1.6 8C1.6 9.69739 2.27428 11.3253 3.47452 12.5255C4.67475 13.7257 6.30261 14.4 8 14.4C9.69739 14.4 11.3253 13.7257 12.5255 12.5255C13.7257 11.3253 14.4 9.69739 14.4 8C14.4 6.30261 13.7257 4.67475 12.5255 3.47452C11.3253 2.27428 9.69739 1.6 8 1.6ZM0 8C0 3.5816 3.5816 0 8 0C12.4184 0 16 3.5816 16 8C16 12.4184 12.4184 16 8 16C3.5816 16 0 12.4184 0 8Z" fill="#CCCCCC"/>
<path d="M7.99688 6.39922C8.20905 6.39922 8.41253 6.4835 8.56256 6.63353C8.71259 6.78356 8.79688 6.98705 8.79688 7.19922V11.9992C8.79688 12.2114 8.71259 12.4149 8.56256 12.5649C8.41253 12.7149 8.20905 12.7992 7.99688 12.7992C7.7847 12.7992 7.58122 12.7149 7.43119 12.5649C7.28116 12.4149 7.19688 12.2114 7.19688 11.9992V7.19922C7.19688 6.98705 7.28116 6.78356 7.43119 6.63353C7.58122 6.4835 7.7847 6.39922 7.99688 6.39922ZM9.19688 4.39922C9.19688 4.71748 9.07045 5.0227 8.8454 5.24775C8.62036 5.47279 8.31513 5.59922 7.99688 5.59922C7.67862 5.59922 7.37339 5.47279 7.14835 5.24775C6.9233 5.0227 6.79688 4.71748 6.79688 4.39922C6.79688 4.08096 6.9233 3.77573 7.14835 3.55069C7.37339 3.32565 7.67862 3.19922 7.99688 3.19922C8.31513 3.19922 8.62036 3.32565 8.8454 3.55069C9.07045 3.77573 9.19688 4.08096 9.19688 4.39922Z" fill="#CCCCCC"/>
</svg>
