<svg width="24" height="24" viewBox="0 0 24 24" fill="none" xmlns="http://www.w3.org/2000/svg">
<path d="M19.25 11.5209C19.2532 12.7857 18.9705 14.0335 18.425 15.1625C17.7782 16.5154 16.7839 17.6534 15.5535 18.4489C14.3231 19.2444 12.9051 19.6661 11.4583 19.6667C10.2485 19.67 9.05494 19.3745 7.975 18.8042L2.75 20.625L4.49167 15.1625C3.94619 14.0335 3.66351 12.7857 3.66667 11.5209C3.66723 10.0084 4.07056 8.52593 4.83149 7.23955C5.59242 5.95318 6.6809 4.9137 7.975 4.23753C9.05494 3.66725 10.2485 3.37173 11.4583 3.37503H11.9167C13.8273 3.48523 15.632 4.32834 16.985 5.74293C18.3381 7.15753 19.1446 9.04419 19.25 11.0417V11.5209Z" stroke="black" stroke-width="1.5" stroke-linecap="round" stroke-linejoin="round"/>
<circle cx="17.9091" cy="5.90909" r="2.90909" fill="white"/>
<circle cx="17.9084" cy="5.90936" r="2.18182" fill="#FD0808"/>
</svg>
