<svg width="20" height="21" viewBox="0 0 20 21" fill="none" xmlns="http://www.w3.org/2000/svg">
<path d="M10 0.5C8.02219 0.5 6.08879 1.08649 4.4443 2.1853C2.79981 3.28412 1.51809 4.8459 0.761209 6.67317C0.00433284 8.50043 -0.193701 10.5111 0.192152 12.4509C0.578004 14.3907 1.53041 16.1725 2.92894 17.5711C4.32746 18.9696 6.10929 19.922 8.0491 20.3079C9.98891 20.6937 11.9996 20.4957 13.8268 19.7388C15.6541 18.9819 17.2159 17.7002 18.3147 16.0557C19.4135 14.4112 20 12.4778 20 10.5C19.997 7.84877 18.9424 5.30699 17.0677 3.43228C15.193 1.55758 12.6512 0.503033 10 0.5ZM15.207 8.11328L9.0195 14.3008C8.92667 14.3937 8.81645 14.4673 8.69514 14.5176C8.57382 14.5679 8.44379 14.5938 8.31248 14.5938C8.18116 14.5938 8.05113 14.5679 7.92981 14.5176C7.8085 14.4673 7.69828 14.3937 7.60544 14.3008L4.793 11.4883C4.60743 11.3004 4.50374 11.0467 4.50457 10.7826C4.50539 10.5185 4.61067 10.2654 4.79741 10.0787C4.98415 9.89194 5.23719 9.78665 5.50129 9.78581C5.76538 9.78498 6.01908 9.88866 6.207 10.0742L8.31248 12.1797L13.793 6.69922C13.9809 6.51366 14.2346 6.40998 14.4987 6.41081C14.7628 6.41165 15.0159 6.51694 15.2026 6.70368C15.3893 6.89043 15.4946 7.14348 15.4954 7.40757C15.4963 7.67167 15.3926 7.92537 15.207 8.11328Z" fill="#3369E8"/>
</svg>
