<svg width="24" height="24" viewBox="0 0 24 24" fill="none" xmlns="http://www.w3.org/2000/svg">
<path d="M24 12C24 18.6274 18.6274 24 12 24C5.37258 24 0 18.6274 0 12C0 5.37258 5.37258 0 12 0C18.6274 0 24 5.37258 24 12Z" fill="#16962B"/>
<path d="M12.0026 17.833C10.4555 17.833 8.97178 17.2184 7.87781 16.1245C6.78385 15.0305 6.16927 13.5468 6.16927 11.9997C6.16927 10.4526 6.78385 8.96885 7.87781 7.87488C8.97178 6.78092 10.4555 6.16634 12.0026 6.16634C13.5497 6.16634 15.0334 6.78092 16.1274 7.87488C17.2214 8.96885 17.8359 10.4526 17.8359 11.9997C17.8359 13.5468 17.2214 15.0305 16.1274 16.1245C15.0334 17.2184 13.5497 17.833 12.0026 17.833ZM12.0026 18.6663C13.7707 18.6663 15.4664 17.964 16.7166 16.7137C17.9669 15.4635 18.6693 13.7678 18.6693 11.9997C18.6693 10.2316 17.9669 8.53587 16.7166 7.28563C15.4664 6.03539 13.7707 5.33301 12.0026 5.33301C10.2345 5.33301 8.5388 6.03539 7.28856 7.28563C6.03832 8.53587 5.33594 10.2316 5.33594 11.9997C5.33594 13.7678 6.03832 15.4635 7.28856 16.7137C8.5388 17.964 10.2345 18.6663 12.0026 18.6663V18.6663Z" fill="white"/>
<path d="M15.6104 13.25C15.6835 13.3767 15.722 13.5204 15.722 13.6667C15.722 13.8129 15.6835 13.9567 15.6104 14.0833C15.2448 14.717 14.7187 15.2431 14.0851 15.6088C13.4515 15.9746 12.7328 16.167 12.0012 16.1667C11.2698 16.1668 10.5512 15.9744 9.91783 15.6086C9.2844 15.2429 8.75846 14.7168 8.3929 14.0833C8.31979 13.9567 8.28129 13.8131 8.28125 13.6669C8.28121 13.5207 8.31964 13.377 8.39268 13.2504C8.46572 13.1237 8.5708 13.0185 8.69736 12.9453C8.82393 12.8721 8.96752 12.8335 9.11373 12.8333H14.8887C15.035 12.8333 15.1787 12.8718 15.3054 12.945C15.4321 13.0181 15.5373 13.1233 15.6104 13.25ZM11.1679 10.75C11.1679 11.44 10.7946 10.75 10.3346 10.75C9.87456 10.75 9.50123 11.44 9.50123 10.75C9.50123 10.06 9.87456 9.5 10.3346 9.5C10.7946 9.5 11.1679 10.06 11.1679 10.75ZM14.5012 10.75C14.5012 11.44 14.1279 10.75 13.6679 10.75C13.2079 10.75 12.8346 11.44 12.8346 10.75C12.8346 10.06 13.2079 9.5 13.6679 9.5C14.1279 9.5 14.5012 10.06 14.5012 10.75Z" fill="white"/>
</svg>
