<svg width="25" height="24" viewBox="0 0 25 24" fill="none" xmlns="http://www.w3.org/2000/svg">
<path d="M12.7254 5.97793C14.1468 5.95402 15.5203 6.49134 16.5482 7.47338L19.4164 4.6052C17.6063 2.9052 15.2085 1.97181 12.7254 2.00065C8.94449 1.9992 5.48627 4.13112 3.78906 7.50975L7.12998 10.1006C7.91778 7.66849 10.1691 6.00974 12.7254 5.97793Z" fill="#D50F25"/>
<path d="M3.78239 7.50977C2.3642 10.3358 2.3642 13.6656 3.78239 16.4916L7.12326 13.9007C6.70514 12.6685 6.70514 11.3328 7.12326 10.1007L3.78239 7.50977Z" fill="#EEB211"/>
<path d="M16.1118 17.0686C13.3078 18.8684 9.57567 18.0544 7.77586 15.2503C7.50536 14.8289 7.28838 14.3754 7.12993 13.9004L3.78906 16.4913C5.48624 19.8699 8.94448 22.0019 12.7254 22.0004C15.1597 22.0664 17.5272 21.1997 19.3436 19.5777L16.1118 17.0686Z" fill="#009925"/>
<path d="M22.1369 10.1816H12.7188V14.0498H18.1005C17.8755 15.2862 17.1546 16.3767 16.1051 17.068C16.1019 17.0701 16.0986 17.0716 16.0955 17.0736C16.0986 17.0716 16.1019 17.0701 16.1051 17.0681L19.3369 19.5772L19.3369 19.5771C21.3272 17.6602 22.4109 14.9889 22.3187 12.2271C22.3193 11.5412 22.2584 10.8567 22.1369 10.1816Z" fill="#3369E8"/>
</svg>
