<svg width="11" height="15" viewBox="0 0 11 15" fill="none" xmlns="http://www.w3.org/2000/svg">
<path d="M5.5 0.9375C2.91221 0.9375 0.8125 2.82744 0.8125 5.15625C0.8125 8.90625 5.5 14.0625 5.5 14.0625C5.5 14.0625 10.1875 8.90625 10.1875 5.15625C10.1875 2.82744 8.08779 0.9375 5.5 0.9375ZM5.5 7.5C5.12916 7.5 4.76665 7.39003 4.45831 7.18401C4.14996 6.97798 3.90964 6.68514 3.76773 6.34253C3.62581 5.99992 3.58868 5.62292 3.66103 5.25921C3.73337 4.89549 3.91195 4.5614 4.17417 4.29917C4.4364 4.03695 4.77049 3.85837 5.13421 3.78603C5.49792 3.71368 5.87492 3.75081 6.21753 3.89273C6.56014 4.03464 6.85298 4.27496 7.05901 4.58331C7.26503 4.89165 7.375 5.25416 7.375 5.625C7.37446 6.12211 7.17674 6.59871 6.82523 6.95023C6.47371 7.30174 5.99711 7.49946 5.5 7.5Z" fill="#FF3E3E"/>
</svg>
