<svg width="28" height="25" viewBox="0 0 28 25" fill="none" xmlns="http://www.w3.org/2000/svg">
<path d="M13.4875 4.99624L14.1153 5.95958L14.7439 4.99677C16.8533 1.76581 19.7873 1.13496 22.1588 2.03999C24.5761 2.9625 26.5547 5.53462 26.5547 9.03098C26.5547 10.2296 25.9116 11.7074 24.7874 13.3395C23.6789 14.949 22.1752 16.6061 20.614 18.1428C19.056 19.6764 17.459 21.0723 16.175 22.1615C15.7137 22.5527 15.2954 22.9022 14.9324 23.2056C14.7893 23.325 14.6549 23.4374 14.5298 23.5422C14.3791 23.6686 14.238 23.7873 14.111 23.8958C13.9763 23.7843 13.8266 23.6626 13.667 23.5336C13.4859 23.3873 13.2879 23.2284 13.0735 23.0563C12.7382 22.7872 12.363 22.4861 11.9504 22.1511C10.6076 21.0612 8.93264 19.6646 7.29647 18.1303C5.65678 16.5926 4.07585 14.9349 2.91007 13.3251C1.72622 11.6903 1.05469 10.2179 1.05469 9.03098C1.05469 5.53478 3.1625 2.9511 5.75059 2.0236C8.305 1.10818 11.3933 1.78252 13.4875 4.99624Z" stroke="#16962B" stroke-width="1.5"/>
</svg>
