<svg width="26" height="26" viewBox="0 0 26 26" fill="none" xmlns="http://www.w3.org/2000/svg">
<path d="M24.6428 3.0686L24.6427 3.06931L20.8707 24.2807C20.7362 24.9856 20.5262 25.2139 20.4219 25.2706C20.3652 25.3015 20.1809 25.3596 19.7441 25.0758L14.0269 20.0523L13.5745 19.6548L13.1786 20.1087L10.4049 23.2896L10.4049 23.2895L10.3974 23.2984C10.3856 23.3125 10.3742 23.3261 10.3631 23.3392L10.7012 17.6257L21.2058 6.3072C21.2063 6.30666 21.2068 6.30612 21.2073 6.30557C21.3681 6.13424 21.5296 5.8913 21.5385 5.59448C21.5493 5.23464 21.3328 4.95858 21.0496 4.83818C20.8042 4.73389 20.5423 4.75247 20.3308 4.8098C20.1105 4.86953 19.8894 4.98489 19.6825 5.14806L6.78028 14.8351L1.41767 12.8337L1.41721 12.8336C1.16994 12.7415 1.03104 12.6386 0.962875 12.5621C0.902155 12.494 0.90396 12.4577 0.904951 12.4442C0.909134 12.3873 1.01045 12.094 1.71663 11.7643C1.71716 11.7641 1.71768 11.7638 1.71821 11.7636L23.8904 1.57818C24.2277 1.42814 24.4013 1.51379 24.4952 1.62228C24.6333 1.78181 24.7966 2.2097 24.6428 3.0686Z" stroke="#16962B" stroke-width="1.2"/>
</svg>
