<svg width="18" height="19" viewBox="0 0 18 19" fill="none" xmlns="http://www.w3.org/2000/svg">
<path fill-rule="evenodd" clip-rule="evenodd" d="M7.29979 16.8141C7.75804 17.2971 8.34634 17.5625 8.95676 17.5625H8.95764C9.57072 17.5625 10.1617 17.2971 10.6208 16.8132C10.8667 16.5562 11.2861 16.5353 11.5577 16.7672C11.8301 16.9991 11.8523 17.3968 11.6072 17.6538C10.8924 18.4048 9.95201 18.8184 8.95764 18.8184H8.95587C7.96417 18.8175 7.02554 18.4039 6.31339 17.653C6.06833 17.3959 6.09045 16.9983 6.36293 16.7672C6.6354 16.5345 7.05473 16.5554 7.29979 16.8141ZM9.00082 0.818359C12.9331 0.818359 15.5747 3.71678 15.5747 6.42348C15.5747 7.81575 15.949 8.40599 16.3462 9.03222C16.739 9.65008 17.184 10.3517 17.184 11.6778C16.8752 15.066 13.1375 15.3423 9.00082 15.3423C4.86413 15.3423 1.12554 15.066 0.820324 11.7314C0.817682 10.3517 1.26267 9.65008 1.65546 9.03222L1.79412 8.81133C2.13554 8.25601 2.42688 7.65196 2.42688 6.42348C2.42688 3.71678 5.06849 0.818359 9.00082 0.818359ZM9.00082 2.07417C5.90892 2.07417 3.75388 4.36645 3.75388 6.42348C3.75388 8.16403 3.24343 8.96859 2.79225 9.67854C2.43042 10.2487 2.14468 10.6991 2.14468 11.6778C2.29242 13.2568 3.39382 14.0865 9.00082 14.0865C14.5768 14.0865 15.7128 13.2199 15.8596 11.6234C15.857 10.6991 15.5712 10.2487 15.2094 9.67854C14.7582 8.96859 14.2478 8.16403 14.2478 6.42348C14.2478 4.36645 12.0927 2.07417 9.00082 2.07417Z" fill="black"/>
</svg>
