<svg width="100" height="100" viewBox="0 0 100 100" fill="none" xmlns="http://www.w3.org/2000/svg">
<path d="M31.2472 63.0734C26.394 63.0734 22.4609 67.005 22.4609 71.8587C22.4609 76.7126 26.394 80.6442 31.2472 80.6442C36.1021 80.6442 40.0342 76.7126 40.0342 71.8587C40.0342 67.005 36.1021 63.0734 31.2472 63.0734ZM31.2472 75.6782C29.1375 75.6782 27.428 73.9684 27.428 71.8587C27.428 69.748 29.1375 68.0392 31.2472 68.0392C33.3572 68.0392 35.0679 69.748 35.0679 71.8587C35.0679 73.9684 33.3572 75.6782 31.2472 75.6782Z" fill="#16962B"/>
<path d="M77.5829 63.0734C72.7297 63.0734 68.7969 67.005 68.7969 71.8587C68.7969 76.7126 72.7297 80.6442 77.5829 80.6442C82.4381 80.6442 86.3699 76.7126 86.3699 71.8587C86.3699 67.005 82.4381 63.0734 77.5829 63.0734ZM77.5829 75.6782C75.4732 75.6782 73.7639 73.9684 73.7639 71.8587C73.7639 69.748 75.4732 68.0392 77.5829 68.0392C79.6931 68.0392 81.4038 69.748 81.4038 71.8587C81.4038 73.9684 79.6931 75.6782 77.5829 75.6782Z" fill="#16962B"/>
<path d="M41.1373 36.078C41.1373 37.3091 40.1298 38.3163 38.899 38.3163H8.01149C6.78036 38.3163 5.77344 37.3091 5.77344 36.078V34.735C5.77344 33.5041 6.78061 32.4969 8.01149 32.4969H38.899C40.1301 32.4969 41.1373 33.5041 41.1373 34.735V36.078V36.078Z" fill="#16962B"/>
<path d="M94.7953 49.1825C91.5737 48.3449 89.7302 47.8184 88.4651 45.3753L84.2351 36.8108C82.9696 34.3677 79.6828 32.3686 76.9322 32.3686H71.1466C71.1466 32.3686 70.3683 32.3848 70.3683 31.6016C70.3683 29.8058 70.3683 24.4187 70.3683 24.4187C70.3683 21.6341 68.7925 19.3558 65.4406 19.3558H18.2882C13.4893 19.3558 11.2109 21.6344 11.2109 24.4187V28.9201C11.2109 28.9201 11.2109 30.2589 12.5067 30.2589C19.1034 30.2589 38.8935 30.2589 38.8935 30.2589C41.3619 30.2589 43.3701 32.2668 43.3701 34.7352V36.0782C43.3701 38.5466 41.3619 40.5545 38.8935 40.5545H12.5067C12.5067 40.5545 11.2109 40.4469 11.2109 41.8457C11.2109 42.5404 11.2109 43.0067 11.2109 43.3937C11.2109 44.6248 12.8983 44.624 12.8983 44.624H30.6606C33.129 44.624 35.1372 46.6322 35.1372 49.1004V50.4434C35.1372 52.9118 33.129 54.9197 30.6606 54.9197H13.1786C13.1786 54.9197 11.2109 54.8833 11.2109 56.45C11.2109 59.1694 11.2109 67.3271 11.2109 67.3271C11.2109 70.1113 13.4893 72.39 16.2738 72.39C16.2738 72.39 18.3713 72.39 19.0704 72.39C19.7047 72.39 19.7981 72.0367 19.7981 71.8592C19.7981 65.5465 24.9345 60.4113 31.2474 60.4113C37.5609 60.4113 42.697 65.547 42.697 71.8592C42.697 72.0374 42.6464 72.39 43.1314 72.39C48.6749 72.39 65.7002 72.39 65.7002 72.39C66.1476 72.39 66.1294 72.0128 66.1294 71.8592C66.1294 65.5465 71.2656 60.4113 77.5788 60.4113C83.892 60.4113 89.0281 65.547 89.0281 71.8592C89.0281 72.0374 89.0237 72.39 89.3037 72.39C91.8456 72.39 94.9937 72.39 94.9937 72.39C97.7458 72.39 99.9969 70.1389 99.9969 67.387V57.8822C99.9971 49.8777 97.4697 49.8777 94.7953 49.1825ZM85.275 48.7373C85.275 48.7373 74.6504 48.7373 71.0345 48.7373C70.4462 48.7373 70.368 48.1645 70.368 48.1645V36.3019C70.368 36.3019 70.3348 35.8464 71.0903 35.8464C72.1063 35.8464 75.1536 35.8464 75.1536 35.8464C77.6019 35.8464 80.5263 37.6252 81.6519 39.7991L85.4161 47.4199C85.5747 47.7267 85.744 47.9991 85.9255 48.2432C86.0592 48.4221 85.835 48.7373 85.275 48.7373Z" fill="#16962B"/>
<path d="M32.9016 50.4434C32.9016 51.6745 31.8944 52.6817 30.6635 52.6817H2.23805C1.00693 52.6817 0 51.6745 0 50.4434V49.1004C0 47.8695 1.00717 46.8623 2.23805 46.8623H30.6635C31.8946 46.8623 32.9016 47.8695 32.9016 49.1004V50.4434Z" fill="#16962B"/>
</svg>
