<svg width="100" height="100" viewBox="0 0 100 100" fill="none" xmlns="http://www.w3.org/2000/svg">
<path d="M79.8573 44.3338C78.8818 43.5658 70.2683 34.0805 65.3907 29.6596C65.37 29.6389 65.37 29.6389 65.37 29.6181V9.19469C65.37 4.13034 61.2396 0 56.1753 0H26.0591C21.3476 0 17.5078 3.86052 17.5078 8.55127V56.455C17.5078 61.5193 21.6382 65.6497 26.7025 65.6497H35.4613H37.6822C38.0558 65.6497 38.3671 65.3176 38.3256 64.944L37.8482 60.8759C37.8067 60.5438 37.5369 60.3155 37.2048 60.3155H36.3953H35.8972C35.5443 60.3155 35.2538 60.0249 35.2538 59.6721V5.25114C35.2538 4.8983 35.5443 4.60772 35.8972 4.60772H56.2376C58.2924 4.60772 59.9736 6.28892 59.9736 8.34371V52.802V57.1814C59.9736 58.5928 58.9981 59.7966 57.6905 60.1702C57.6697 60.1702 57.6697 60.1702 57.6489 60.1702C55.4281 58.9664 52.8129 53.819 52.4186 53.0095C52.3771 52.9473 52.3563 52.8643 52.3563 52.802C52.211 51.4944 50.7374 38.8335 43.9918 38.8335C43.805 38.8335 43.6182 38.8335 43.4314 38.8543C43.4314 38.8543 38.035 39.3109 42.4974 54.6907C42.4974 54.7323 42.5182 54.753 42.5182 54.7945L44.49 71.8348C44.49 71.8555 44.49 71.8763 44.5107 71.9178C44.6768 72.5612 46.9184 81.2578 52.7091 87.4222C52.8129 87.5467 52.8752 87.692 52.8752 87.858V89.3317C52.8752 89.3732 52.8544 89.3939 52.8129 89.3939H52.294C51.0279 89.3939 49.9902 90.4317 49.9902 91.6978V97.6961C49.9902 98.9622 51.0279 100 52.294 100H76.7233C77.9893 100 79.0271 98.9622 79.0271 97.6961V91.7393C79.0271 90.4732 77.9893 89.4355 76.7233 89.4355C76.6817 89.4355 76.661 89.4147 76.661 89.3732C77.4705 81.8597 80.3762 56.1644 81.9329 54.1511C81.9744 54.0888 82.0159 54.0266 82.0367 53.9435C82.3065 53.0095 83.6556 47.3018 79.8573 44.3338ZM27.1176 59.7136C27.1176 60.0457 26.8478 60.2947 26.5365 60.2947C24.5024 60.2947 22.842 58.6343 22.842 56.6003V8.3022C22.842 6.26816 24.5024 4.60772 26.5365 4.60772C26.8685 4.60772 27.1176 4.87754 27.1176 5.18888V59.7136Z" fill="#16962B"/>
</svg>
