<svg width="100" height="100" viewBox="0 0 100 100" fill="none" xmlns="http://www.w3.org/2000/svg">
<path d="M58.0516 50.7884L53.5703 53.3817V100L93.923 76.7012V30.083L58.0516 50.7884Z" fill="#16962B"/>
<path d="M65.3511 8.9834L49.8324 0L8.35938 23.9419L23.8988 32.9253L65.3511 8.9834Z" fill="#16962B"/>
<path d="M91.2892 23.9419L73.4054 13.7552L31.9531 37.6971L34.3183 38.9212L49.8369 47.8838L65.2726 38.9834L91.2892 23.9419Z" fill="#16962B"/>
<path d="M28.8167 54.834L21.3893 51.0166V39.1494L6.07812 30.3319V76.6183L46.1404 99.751V53.4647L28.8167 43.4855V54.834Z" fill="#16962B"/>
<circle cx="71.5" cy="36.5" r="23.5" fill="white"/>
<circle cx="71.5" cy="36.5" r="18.5" fill="#16962B"/>
<path d="M65.1249 26L60.75 29.75L65.1249 34.125" stroke="white" stroke-width="4" stroke-linecap="round" stroke-linejoin="round"/>
<path d="M60.75 29.75H75.1211C79.423 29.75 83.0763 33.2627 83.244 37.5625C83.4212 42.106 79.6669 46 75.1211 46H64.499" stroke="white" stroke-width="4" stroke-linecap="round" stroke-linejoin="round"/>
</svg>
